<svg width="141" height="628" viewBox="0 0 141 628" fill="none" xmlns="http://www.w3.org/2000/svg">
<path d="M138.5 443.5H140.5V442.672L139.914 442.086L138.5 443.5ZM52 357H50V357.828L50.5858 358.414L52 357ZM41.3333 227C41.3333 232.891 46.109 237.667 52 237.667C57.891 237.667 62.6667 232.891 62.6667 227C62.6667 221.109 57.891 216.333 52 216.333C46.109 216.333 41.3333 221.109 41.3333 227ZM140.5 626.5V443.5H136.5V626.5H140.5ZM139.914 442.086L53.4142 355.586L50.5858 358.414L137.086 444.914L139.914 442.086ZM54 357V227H50V357H54Z" fill="#00BBFF" fill-opacity="0.2"/>
<path d="M100.5 630.5V462L9.5 371V56L-41 5.5L-61 289.5" stroke="white" stroke-opacity="0.2" stroke-width="4"/>
</svg>